<svg xmlns="http://www.w3.org/2000/svg" style="display: none;">
  <!-- Иконка favorites -->
  <symbol id="icon-favorites" viewBox="0 0 24 24" fill="none" stroke="currentColor">
    <path fill-rule="evenodd" clip-rule="evenodd" d="M12.7046 4.25644C13.8299 3.13067 15.3564 2.49817 16.9482 2.49817C18.5399 2.49817 20.0664 3.13063 21.1916 4.25636C22.3174 5.38164 22.95 6.90829 22.95 8.49999C22.95 10.0917 22.3175 11.6183 21.1917 12.7435C21.1917 12.7436 21.1917 12.7435 21.1917 12.7435L12.3517 21.5835C12.1565 21.7788 11.8399 21.7788 11.6446 21.5835L2.80461 12.7435C0.460963 10.3999 0.460963 6.60009 2.80461 4.25644C5.14826 1.91279 8.94807 1.91279 11.2917 4.25644L11.9982 4.96289L12.7046 4.25644C12.7046 4.25641 12.7046 4.25647 12.7046 4.25644ZM16.9482 3.49817C15.6217 3.49817 14.3496 4.02528 13.4118 4.96346L12.3517 6.02355C12.258 6.11732 12.1308 6.16999 11.9982 6.16999C11.8656 6.16999 11.7384 6.11732 11.6446 6.02355L10.5846 4.96355C8.63149 3.01042 5.46484 3.01042 3.51172 4.96355C1.55859 6.91667 1.55859 10.0833 3.51172 12.0364L11.9982 20.5229L20.4846 12.0364C21.4228 11.0987 21.95 9.82648 21.95 8.49999C21.95 7.17351 21.4229 5.90138 20.4847 4.96363C19.5469 4.02544 18.2747 3.49817 16.9482 3.49817Z" fill="currentColor"/>
  </symbol>

  <!-- Иконка basket -->
  <symbol id="icon-basket" viewBox="0 0 24 24" fill="none" stroke="currentColor" >
    <path fill-rule="evenodd" clip-rule="evenodd" d="M5.5 21C5.5 19.6193 6.61929 18.5 8 18.5C9.38071 18.5 10.5 19.6193 10.5 21C10.5 22.3807 9.38071 23.5 8 23.5C6.61929 23.5 5.5 22.3807 5.5 21ZM8 19.5C7.17157 19.5 6.5 20.1716 6.5 21C6.5 21.8284 7.17157 22.5 8 22.5C8.82843 22.5 9.5 21.8284 9.5 21C9.5 20.1716 8.82843 19.5 8 19.5Z" fill="currentColor"/>
    <path fill-rule="evenodd" clip-rule="evenodd" d="M17.5 21C17.5 19.6193 18.6193 18.5 20 18.5C21.3807 18.5 22.5 19.6193 22.5 21C22.5 22.3807 21.3807 23.5 20 23.5C18.6193 23.5 17.5 22.3807 17.5 21ZM20 19.5C19.1716 19.5 18.5 20.1716 18.5 21C18.5 21.8284 19.1716 22.5 20 22.5C20.8284 22.5 21.5 21.8284 21.5 21C21.5 20.1716 20.8284 19.5 20 19.5Z" fill="currentColor"/>
    <path fill-rule="evenodd" clip-rule="evenodd" d="M1 0.5C0.723858 0.5 0.5 0.723858 0.5 1C0.5 1.27614 0.723858 1.5 1 1.5H4.58051C5.33783 5.79147 6.10333 10.0643 6.74931 14.3709C6.93288 15.5947 7.98416 16.5 9.22165 16.5H19.3597C20.5514 16.5 21.5774 15.6588 21.8111 14.4903L23.2503 7.29417C23.436 6.36599 22.726 5.5 21.7795 5.5H7.16046C6.8575 5.5 6.57797 5.58901 6.34436 5.74093L5.49239 0.913107C5.45023 0.674179 5.24262 0.5 5 0.5H1ZM6.666 7.07417C6.62065 6.77187 6.85478 6.5 7.16046 6.5H21.7795C22.095 6.5 22.3316 6.78866 22.2698 7.09806L20.8305 14.2942C20.6903 14.9953 20.0747 15.5 19.3597 15.5H9.22165C8.47916 15.5 7.84839 14.9568 7.73825 14.2225L6.666 7.07417Z" fill="currentColor"/>
  </symbol>

  <!-- Иконка order -->
  <symbol id="icon-order" viewBox="0 0 24 24" fill="none" stroke="currentColor" >
    <path fill-rule="evenodd" clip-rule="evenodd" d="M11.3325 1.89776C11.3324 1.89785 11.3327 1.89767 11.3325 1.89776L3.33366 5.89721L3.33255 5.89776C2.82288 6.15102 2.50045 6.67089 2.50005 7.24V16.7635C2.49608 17.3334 2.81541 17.8563 3.32416 18.113C3.32387 18.1129 3.32445 18.1132 3.32416 18.113L11.3237 22.1128C11.7462 22.3242 12.2438 22.3243 12.6663 22.1129L20.6664 18.1128L20.6675 18.1122C21.1773 17.8589 21.4997 17.3389 21.5 16.7697V7.24026C21.4997 6.67105 21.1773 6.15106 20.6675 5.89776L20.6664 5.89721L12.6675 1.89776C12.6674 1.89767 12.6677 1.89786 12.6675 1.89776C12.2474 1.6892 11.7527 1.68919 11.3325 1.89776ZM10.8875 1.00223C11.5883 0.654 12.4118 0.654 13.1125 1.00223L13.1137 1.00278L21.1125 5.00223C21.1124 5.00215 21.1127 5.00231 21.1125 5.00223C21.9618 5.42448 22.4995 6.29123 22.5 7.23973V16.77C22.4995 17.7184 21.9624 18.5852 21.1132 19.0074C21.113 19.0075 21.1134 19.0073 21.1132 19.0074L13.1138 23.0071C13.1138 23.0072 13.1138 23.0071 13.1138 23.0071C12.4097 23.3594 11.5806 23.3595 10.8764 23.0072C10.8764 23.0072 10.8765 23.0072 10.8764 23.0072L2.87644 19.0072L2.87506 19.0065C2.02685 18.5791 1.49413 17.708 1.50005 16.7584V7.24C1.50055 6.29154 2.03772 5.4248 2.88695 5.00253C2.88675 5.00263 2.88715 5.00243 2.88695 5.00253L10.8864 1.00278L10.8875 1.00223Z" fill="currentColor"/>
    <path fill-rule="evenodd" clip-rule="evenodd" d="M1.87321 5.93638C1.9967 5.6894 2.29704 5.58928 2.54403 5.71278L12.0004 10.441L21.4568 5.71278C21.7038 5.58928 22.0041 5.6894 22.1276 5.93638C22.2511 6.18337 22.151 6.48371 21.904 6.6072L12.224 11.4472C12.0833 11.5176 11.9176 11.5176 11.7768 11.4472L2.09682 6.6072C1.84983 6.48371 1.74971 6.18337 1.87321 5.93638Z" fill="currentColor"/>
    <path fill-rule="evenodd" clip-rule="evenodd" d="M12 10.5C12.2761 10.5 12.5 10.7239 12.5 11V22.76C12.5 23.0361 12.2761 23.26 12 23.26C11.7239 23.26 11.5 23.0361 11.5 22.76V11C11.5 10.7239 11.7239 10.5 12 10.5Z" fill="currentColor"/>
    <path fill-rule="evenodd" clip-rule="evenodd" d="M6.5529 3.27638C6.67639 3.02939 6.97673 2.92928 7.22372 3.05277L17.2237 8.05277C17.4707 8.17627 17.5708 8.4766 17.4473 8.72359C17.3238 8.97058 17.0235 9.0707 16.7765 8.9472L6.7765 3.9472C6.52951 3.82371 6.4294 3.52337 6.5529 3.27638Z" fill="currentColor"/>
  </symbol>

  <!-- Иконка star -->
  <symbol id="icon-star" viewBox="0 0 13 13" fill="none">
    <path d="M5.5642 0.557433C5.93102 -0.185813 6.99086 -0.185812 7.35767 0.557434L8.57941 3.03294C8.72507 3.32808 9.00664 3.53265 9.33235 3.57998L12.0642 3.97694C12.8844 4.09613 13.212 5.1041 12.6184 5.68264L10.6416 7.60955C10.4059 7.83929 10.2984 8.17029 10.354 8.49468L10.8207 11.2155C10.9608 12.0324 10.1034 12.6554 9.36975 12.2697L6.92628 10.9851C6.63495 10.8319 6.28692 10.8319 5.9956 10.9851L3.55213 12.2697C2.8185 12.6554 1.96107 12.0324 2.10118 11.2155L2.56784 8.49468C2.62348 8.17029 2.51593 7.83929 2.28024 7.60955L0.303434 5.68264C-0.290083 5.1041 0.037428 4.09613 0.857648 3.97694L3.58953 3.57998C3.91524 3.53265 4.19681 3.32808 4.34247 3.03294L5.5642 0.557433Z" fill="currentColor"/>
  </symbol>

 <!-- Иконка phone -->
  <symbol id="icon-phone" viewBox="0 0 24 24" fill="none">
    <path fill-rule="evenodd" clip-rule="evenodd" d="M0.530549 5.62795C0.29859 3.78205 1.87862 2.5 3.57554 2.5H7.1672C7.89213 2.5 8.51333 3.01844 8.64301 3.73167L9.24935 7.06653C9.43046 8.06268 9.17133 9.08845 8.53884 9.87906L7.81545 10.7833C7.68654 10.9444 7.67475 11.1581 7.77434 11.3205C8.2439 12.0862 9.08857 13.3797 9.85533 14.1464C10.6221 14.9132 11.9156 15.7579 12.6813 16.2274C12.8437 16.327 13.0573 16.3152 13.2185 16.1863L14.1227 15.4629C14.9133 14.8304 15.9391 14.5713 16.9352 14.7524L20.2701 15.3588C20.9833 15.4885 21.5018 16.1096 21.5018 16.8346V20.1816C21.5018 22.0032 20.0508 23.624 18.1171 23.313C14.8045 22.7803 10.0694 21.0768 6.13538 16.8402C2.31033 12.7209 0.893311 8.51475 0.530549 5.62795ZM3.57554 3.5C2.31103 3.5 1.38547 4.41084 1.52275 5.50326C1.86104 8.19537 3.19444 12.2034 6.86818 16.1598C10.6177 20.1977 15.1307 21.8199 18.2758 22.3257C19.4703 22.5178 20.5018 21.5285 20.5018 20.1816V16.8346C20.5018 16.5929 20.329 16.3859 20.0912 16.3426L16.7564 15.7363C16.0448 15.6069 15.3121 15.792 14.7474 16.2438L13.8432 16.9672C13.3653 17.3495 12.6937 17.4081 12.1585 17.0799C11.3953 16.6119 10.008 15.7133 9.14823 14.8536C8.28849 13.9938 7.3899 12.6064 6.92187 11.8433C6.59367 11.3081 6.65231 10.6364 7.03458 10.1586L7.75797 9.25437C8.20975 8.68964 8.39485 7.95695 8.26548 7.24541L7.65914 3.91056C7.61591 3.67281 7.40885 3.5 7.1672 3.5H3.57554Z" fill="currentColor"/>
  </symbol>
</svg>